<svg version="1.1" id="Layer_1" xmlns="http://www.w3.org/2000/svg" xmlns:xlink="http://www.w3.org/1999/xlink" x="0px" y="0px"
	 width="100%" viewBox="0 0 1013 949" enable-background="new 0 0 1013 949" xml:space="preserve">
<path fill="#DAF6FE" opacity="1.000000" stroke="none" 
	d="
M1014.000000,251.000000 
	C1014.000000,484.333344 1014.000000,717.166687 1014.000000,950.000000 
	C676.333313,950.000000 338.666656,950.000000 1.000000,950.000000 
	C1.000000,633.666687 1.000000,317.333344 1.000000,1.000000 
	C338.666656,1.000000 676.333313,1.000000 1014.000000,1.000000 
	C1014.000000,84.166664 1014.000000,167.333328 1014.000000,251.000000 
M522.774475,805.284607 
	C522.893311,803.967224 523.116760,802.649780 523.116028,801.332458 
	C523.070251,718.093384 523.011230,634.854309 522.905457,551.615295 
	C522.903503,550.050049 522.326904,548.485596 521.762146,546.144531 
	C521.595093,544.320740 521.491150,542.488525 521.251404,540.674377 
	C518.434143,519.357849 509.364990,502.075989 488.142029,494.392273 
	C479.118134,491.125244 469.121918,489.144775 459.541992,489.045349 
	C407.080109,488.500793 354.610046,488.631897 302.143463,488.774597 
	C294.040619,488.796600 285.853302,489.549683 277.856812,490.878265 
	C254.500626,494.758789 238.710571,507.624603 233.751511,531.335144 
	C231.625885,541.498230 230.862137,552.057495 230.563919,562.467834 
	C229.977631,582.934509 230.149765,603.422852 229.305847,624.422729 
	C229.174606,625.734192 228.938522,627.044678 228.927383,628.357178 
	C228.578995,669.368774 228.196121,710.380066 227.950897,751.392334 
	C227.854446,767.523499 228.081192,783.656616 228.141724,799.788818 
	C228.154465,803.186462 228.083755,806.584412 227.439499,809.504761 
	C219.468842,808.492981 211.504395,806.716003 203.526062,806.651306 
	C191.985748,806.557495 180.418137,807.491211 168.897629,808.424316 
	C164.211639,808.803833 159.387558,809.742737 155.028503,811.452515 
	C143.781998,815.863953 137.575439,824.368835 136.028488,836.453552 
	C135.822403,838.063416 133.522293,839.405273 132.090256,839.955017 
	C132.021408,816.146973 131.974106,792.338867 131.878860,768.530884 
	C131.718979,728.563782 131.594879,688.596375 131.296814,648.630249 
	C131.234955,640.336426 130.480026,632.047729 130.098679,622.901733 
	C129.530472,611.694824 128.962250,600.487854 128.394043,589.280945 
	C128.041046,594.001831 128.182693,598.745178 127.991745,603.475037 
	C127.862206,606.683777 127.265747,609.873657 126.225853,612.803955 
	C118.567085,605.952393 106.944511,606.176086 101.594467,612.573242 
	C97.333260,617.668396 95.029251,623.895447 95.028870,630.735168 
	C95.024956,699.728394 95.278267,768.723267 94.830818,837.713562 
	C94.731964,852.955811 98.840897,866.613159 105.330162,879.860962 
	C107.097687,883.469421 109.757164,887.086060 112.929726,889.472778 
	C120.627228,895.263428 128.406097,901.276489 136.995773,905.473572 
	C150.106979,911.880005 163.658615,917.096130 178.906799,917.084961 
	C400.551605,916.922791 622.196899,916.825989 843.840820,917.297058 
	C859.143677,917.329590 871.955688,912.142578 884.600098,905.704773 
	C900.022522,897.852661 909.667786,884.061279 917.146423,868.854492 
	C920.583313,861.865906 922.072815,854.371948 922.045105,846.423584 
	C921.609802,721.460632 921.302429,596.497253 920.985779,471.533905 
	C920.968811,464.858673 918.197510,459.958496 912.189697,456.932068 
	C905.080078,453.350616 898.161865,452.717346 891.604492,458.167328 
	C886.362549,462.523895 885.418579,468.423889 885.427368,474.788239 
	C885.470093,505.700775 885.448486,536.613403 885.416504,567.526001 
	C885.355896,626.019714 885.277100,684.513367 885.182068,743.007080 
	C885.178284,745.331055 884.929626,747.654602 884.188599,750.565247 
	C884.125488,761.319885 884.032227,772.074402 884.006775,782.829102 
	C883.975037,796.258179 883.999207,809.687378 883.999207,824.290710 
	C881.703857,822.397339 880.855286,821.697388 879.688477,820.582458 
	C876.725464,813.632080 871.487061,809.965454 863.938721,809.360962 
	C854.956787,808.641663 845.989319,807.740845 836.474243,806.270935 
	C835.484802,806.189575 834.495667,806.041504 833.505798,806.036316 
	C765.333008,805.681946 697.160278,805.303284 628.987183,805.017883 
	C610.013000,804.938416 591.037170,805.097534 572.063293,805.275146 
	C570.282349,805.291809 568.510132,806.231689 565.830750,806.721130 
	C552.952820,806.731201 540.074890,806.741211 526.483276,806.342773 
	C525.102905,806.280701 523.722473,806.218567 522.774475,805.284607 
M901.126404,396.319824 
	C901.388306,395.830414 901.650208,395.341034 902.242126,394.191498 
	C902.762878,393.810425 903.229492,393.248413 903.812073,393.074310 
	C930.919128,384.973785 951.996643,368.593781 968.943909,346.269501 
	C983.583252,326.985229 990.540894,304.982910 993.206482,281.278442 
	C994.482788,269.928253 994.624634,258.881866 990.217285,247.910324 
	C974.731628,209.360443 959.722290,170.619354 944.276855,132.053085 
	C936.184937,111.848183 928.396729,91.452225 918.934631,71.885696 
	C910.090027,53.596298 895.914917,40.017937 876.310547,32.736580 
	C860.369202,26.815771 843.775024,26.085157 827.134277,26.078831 
	C618.682434,25.999575 410.230621,26.001040 201.778839,26.102953 
	C191.318130,26.108068 180.802170,26.726778 170.407593,27.904209 
	C133.186188,32.120407 105.188492,50.740170 89.230896,84.602783 
	C78.569557,107.226547 70.763542,131.198074 61.726921,154.584702 
	C50.588139,183.411682 39.913094,212.427658 28.190336,241.014511 
	C23.263268,253.029526 18.958675,264.947784 19.096998,277.961334 
	C19.341049,300.921783 25.893244,322.276855 37.385727,341.998230 
	C44.429878,354.086212 53.152950,365.062653 64.797874,373.113708 
	C71.515869,377.758362 78.882309,381.468231 85.976921,385.564117 
	C91.525223,388.767334 96.056961,392.499451 96.047447,399.792511 
	C96.027473,415.107361 96.091537,430.427032 96.490250,445.735138 
	C96.627213,450.994141 97.362869,456.359924 98.734573,461.430908 
	C100.187012,466.800262 104.324394,470.423676 109.667542,471.883362 
	C116.026901,473.620697 121.770325,470.012451 124.840836,465.796112 
	C129.054291,460.010162 133.216919,453.270142 132.921448,445.080109 
	C137.315262,444.984863 141.837021,444.172607 146.078812,444.929413 
	C158.568741,447.157806 170.926437,445.455292 183.061569,443.459167 
	C205.601822,439.751434 224.282501,428.560760 239.612152,411.548248 
	C250.765274,399.170837 258.673828,384.977203 264.662598,369.582642 
	C266.801788,364.083679 268.869202,358.556793 271.215942,352.395294 
	C275.210266,361.639465 278.436157,370.013275 282.421967,378.008270 
	C285.045990,383.271698 288.710846,388.025482 292.007019,392.942200 
	C296.355042,399.427856 300.265350,406.316376 305.372467,412.148407 
	C309.337677,416.676422 314.850311,419.848328 319.670898,423.628448 
	C340.034119,439.596619 363.688202,446.726227 389.039429,447.457184 
	C400.012787,447.773590 411.280975,445.484283 422.065704,442.912567 
	C437.762482,439.169586 451.278564,430.894806 463.758698,420.555389 
	C482.022583,405.424255 495.386108,387.504181 499.923553,363.743164 
	C500.281128,361.870728 501.638306,359.087585 503.033844,358.738586 
	C506.179962,357.951752 509.548615,358.228668 511.480194,362.032013 
	C515.927368,370.788879 520.493713,379.490387 525.234192,388.091705 
	C530.738586,398.079132 534.360596,409.308319 543.687622,416.838257 
	C560.966797,430.788025 579.619263,442.366364 601.892395,445.918121 
	C612.752991,447.650024 624.206970,448.740540 634.974060,447.199310 
	C648.417236,445.275055 661.690247,441.075378 674.559326,436.511963 
	C689.350769,431.266815 701.668945,421.870178 710.953613,409.064240 
	C716.054260,402.029175 720.644836,394.597168 725.077820,387.114563 
	C728.075562,382.054504 730.577942,376.674622 732.976013,371.292572 
	C735.820618,364.908051 738.315308,358.367645 741.156616,351.417999 
	C742.104614,352.853760 742.764771,353.475464 742.971985,354.222809 
	C748.109253,372.741852 755.607727,390.040100 768.192383,404.887390 
	C776.393127,414.562439 785.757141,423.071838 796.918213,428.767670 
	C811.330383,436.122650 826.260681,442.514282 842.854858,443.865936 
	C860.378296,445.293304 877.810791,446.799927 894.298889,438.691315 
	C897.593567,437.071045 901.625244,435.376465 901.608643,431.051453 
	C901.564636,419.593445 901.007019,408.137390 901.126404,396.319824 
M783.353394,490.803650 
	C779.878235,490.186768 776.408325,489.070984 772.927063,489.034424 
	C751.267700,488.807037 729.605103,488.687103 707.944824,488.788513 
	C678.316345,488.927216 648.644470,488.397278 619.075928,489.862518 
	C597.296753,490.941772 581.447083,504.891937 578.737915,527.018494 
	C577.560547,536.634338 577.828735,546.450562 577.783203,556.177368 
	C577.639832,586.814697 577.684937,617.452820 577.603760,648.090576 
	C577.564880,662.777100 577.746094,677.398987 585.034119,690.807434 
	C591.986328,703.597778 602.439148,712.288940 616.216553,716.719543 
	C619.423523,717.750916 623.155823,717.274597 626.646606,717.278748 
	C670.805481,717.331116 714.964355,717.331665 759.123230,717.382751 
	C765.136292,717.389709 771.198181,717.830627 776.822021,715.094971 
	C781.678040,712.732849 787.394104,711.175232 791.070190,707.569763 
	C797.075195,701.680115 802.001770,694.605347 806.878418,687.675293 
	C811.661987,680.877441 813.066467,672.788757 813.159302,664.679382 
	C813.519714,633.190247 813.844971,601.697083 813.709412,570.207458 
	C813.645081,555.256165 813.590393,540.158569 811.523010,525.408691 
	C809.883362,513.710571 805.409119,502.349945 793.228882,496.533112 
	C790.041687,495.011047 787.164612,492.839722 783.353394,490.803650 
M94.978622,566.293823 
	C95.293503,568.933655 95.442139,571.606018 95.951530,574.207764 
	C98.382545,586.624268 106.368164,591.085022 118.314842,586.795166 
	C128.443222,583.158264 128.568634,583.155823 128.362595,572.418213 
	C127.890495,547.817261 127.228226,523.219788 126.801552,498.618134 
	C126.748299,495.547729 125.675400,494.064728 122.789345,493.431366 
	C119.398544,492.687256 116.098152,491.276154 112.682526,490.949707 
	C103.635597,490.084961 98.512207,493.738373 96.330521,502.598145 
	C95.426369,506.269867 95.050621,510.153076 95.020676,513.944763 
	C94.885399,531.075439 94.959869,548.207825 94.978622,566.293823 
z"/>
<path fill="#010001" opacity="1.000000" stroke="none" 
	d="
M132.135452,445.183167 
	C133.216919,453.270142 129.054291,460.010162 124.840836,465.796112 
	C121.770325,470.012451 116.026901,473.620697 109.667542,471.883362 
	C104.324394,470.423676 100.187012,466.800262 98.734573,461.430908 
	C97.362869,456.359924 96.627213,450.994141 96.490250,445.735138 
	C96.091537,430.427032 96.027473,415.107361 96.047447,399.792511 
	C96.056961,392.499451 91.525223,388.767334 85.976921,385.564117 
	C78.882309,381.468231 71.515869,377.758362 64.797874,373.113708 
	C53.152950,365.062653 44.429878,354.086212 37.385727,341.998230 
	C25.893244,322.276855 19.341049,300.921783 19.096998,277.961334 
	C18.958675,264.947784 23.263268,253.029526 28.190336,241.014511 
	C39.913094,212.427658 50.588139,183.411682 61.726921,154.584702 
	C70.763542,131.198074 78.569557,107.226547 89.230896,84.602783 
	C105.188492,50.740170 133.186188,32.120407 170.407593,27.904209 
	C180.802170,26.726778 191.318130,26.108068 201.778839,26.102953 
	C410.230621,26.001040 618.682434,25.999575 827.134277,26.078831 
	C843.775024,26.085157 860.369202,26.815771 876.310547,32.736580 
	C895.914917,40.017937 910.090027,53.596298 918.934631,71.885696 
	C928.396729,91.452225 936.184937,111.848183 944.276855,132.053085 
	C959.722290,170.619354 974.731628,209.360443 990.217285,247.910324 
	C994.624634,258.881866 994.482788,269.928253 993.206482,281.278442 
	C990.540894,304.982910 983.583252,326.985229 968.943909,346.269501 
	C951.996643,368.593781 930.919128,384.973785 903.812073,393.074310 
	C903.229492,393.248413 902.762878,393.810425 901.742737,394.619080 
	C900.475098,395.238861 899.715027,395.552094 898.937378,395.604340 
	C892.081604,396.065125 885.222717,396.479553 877.891052,396.948425 
	C875.093994,396.902435 872.757812,396.942078 870.449402,396.707733 
	C858.672974,395.512115 846.924805,393.569611 835.125671,393.200378 
	C824.042419,392.853577 813.759094,390.125885 803.954529,385.591919 
	C792.233398,380.171661 781.661743,373.113525 772.651733,363.469604 
	C765.347046,355.650970 756.460571,349.334625 748.605896,341.998383 
	C740.841858,334.746735 740.285645,334.583649 733.459045,342.701141 
	C733.353210,342.826935 733.302246,343.004059 733.185242,343.114410 
	C722.800598,352.910919 712.646057,362.970459 701.911621,372.367737 
	C697.458679,376.265961 691.895874,378.991882 686.604187,381.812836 
	C679.779968,385.450745 673.039490,390.000366 665.691650,391.729492 
	C653.803955,394.527008 641.490234,396.227692 629.284119,396.772583 
	C614.904968,397.414520 600.444519,396.444702 586.029236,395.908813 
	C582.853882,395.790771 579.562256,394.955139 576.593262,393.773712 
	C561.198669,387.647766 549.269470,376.246277 536.266052,366.553192 
	C529.030029,361.159302 522.881042,354.328033 515.882385,348.582794 
	C513.569763,346.684387 510.185272,345.365662 507.196991,345.162445 
	C500.282959,344.692230 495.854980,349.554932 491.513947,354.049103 
	C487.287354,358.424744 483.767151,363.665375 478.999298,367.294525 
	C471.003357,373.380798 462.432953,378.772949 453.795746,383.941681 
	C441.540619,391.275543 427.846069,394.637024 413.911163,396.954346 
	C407.973450,397.941803 401.950348,398.568268 395.940552,398.908508 
	C392.670349,399.093689 389.310272,398.540344 386.054871,397.960175 
	C379.197144,396.737946 372.381683,395.278625 365.329407,393.651123 
	C356.732849,391.578735 348.355682,389.771851 339.986816,387.990662 
	C339.995148,388.016418 340.044678,387.994751 339.822876,387.790649 
	C338.842468,387.447540 338.083893,387.308563 336.888000,387.076355 
	C333.369446,386.200562 330.243591,385.559631 327.215393,384.608093 
	C318.986908,382.022552 314.162598,374.733215 307.205444,369.794128 
	C303.052948,365.685150 299.188629,361.784058 295.151794,358.070465 
	C292.280090,355.428772 289.176025,353.039703 285.987610,350.222351 
	C284.038208,348.237183 282.276947,346.567505 280.537354,344.762329 
	C280.475464,344.669098 280.391846,344.711365 280.074646,344.453125 
	C278.524567,342.902985 277.181732,341.679779 275.896057,340.399200 
	C269.597015,334.125000 269.252045,334.131805 264.216919,341.037781 
	C251.846634,358.004364 236.402634,371.407562 217.423431,381.080750 
	C209.067795,383.742798 201.069870,386.456665 192.683380,389.162170 
	C182.800186,391.945862 173.644882,396.319763 163.284180,395.073090 
	C162.246231,394.948181 161.028809,396.314850 159.487335,396.993652 
	C150.643417,398.561676 142.179916,400.000793 133.797928,401.816315 
	C132.462540,402.105591 130.511215,404.082184 130.507248,405.284180 
	C130.468964,416.863922 130.744354,428.445953 131.049286,440.024200 
	C131.094803,441.752197 131.758011,443.463928 132.135452,445.183167 
M384.953430,362.944519 
	C389.588959,362.981750 394.317719,363.616150 398.837341,362.910736 
	C405.001556,361.948639 411.006409,359.965393 417.983063,358.157440 
	C424.695282,355.916473 431.407501,353.675507 438.787354,351.391968 
	C445.277863,346.891998 451.768341,342.392059 458.885925,337.698029 
	C476.639801,318.481659 484.488586,294.855804 489.678223,269.411774 
	C490.900452,261.883087 496.477814,257.961792 503.108948,254.723373 
	C511.111298,253.674713 516.325012,258.241455 519.216736,264.556763 
	C522.899658,272.599915 525.157471,281.295319 528.034607,289.707855 
	C530.148315,295.888397 531.727295,302.323303 534.506104,308.189362 
	C539.594360,318.930756 545.624451,329.215851 553.895203,337.902466 
	C558.581116,342.824036 563.129333,348.214142 568.748596,351.821533 
	C575.321655,356.041260 582.841797,358.969116 590.245178,361.642822 
	C594.620300,363.222900 599.544800,363.521851 604.259766,363.837891 
	C607.501770,364.055237 610.805298,363.083862 614.086304,363.042725 
	C623.742737,362.921631 633.410767,363.243317 643.055542,362.886414 
	C647.264038,362.730621 651.948975,362.295837 655.514038,360.340393 
	C666.788391,354.156403 677.665833,347.242676 688.620789,340.487885 
	C690.546570,339.300385 692.391602,337.743042 693.784973,335.971863 
	C700.067139,327.986328 706.516602,320.095184 712.210571,311.698608 
	C715.489929,306.862885 718.966675,301.330414 719.704346,295.760559 
	C721.748108,280.329529 726.715515,266.370605 736.890930,253.995026 
	C738.462219,254.329391 740.051941,255.012970 741.601257,254.931183 
	C745.858459,254.706451 749.109863,256.177490 750.627075,260.191742 
	C752.484314,265.105560 754.506653,270.060028 755.488281,275.182678 
	C758.642029,291.640808 768.090149,305.325439 774.559631,320.320221 
	C780.981262,335.204315 794.235229,341.638702 807.171265,348.423218 
	C814.253479,352.137604 822.056519,354.540771 829.655334,357.188568 
	C836.844177,359.693542 844.066895,363.011932 851.493347,363.738647 
	C868.116760,365.365356 884.384705,362.143219 900.330750,357.298309 
	C912.365417,353.641876 921.403503,345.521088 930.119263,337.161346 
	C935.620239,331.885040 941.283997,326.170441 944.777893,319.546478 
	C950.611328,308.487000 955.668640,297.032166 956.723694,283.983612 
	C957.822449,270.395355 956.421387,257.939117 948.111206,246.068512 
	C943.431641,234.132919 938.369141,222.330338 934.165771,210.229340 
	C928.428589,193.712631 923.332825,176.972763 917.988281,160.320145 
	C915.614014,152.922012 913.671021,145.360413 910.859070,138.134933 
	C908.163147,131.207367 903.977478,124.834030 901.542786,117.835739 
	C896.747070,104.051132 890.554321,91.183022 881.381226,79.725929 
	C872.356079,68.453552 860.958679,62.111195 846.460632,62.038761 
	C820.133179,61.907230 793.804565,61.980808 767.476440,62.008358 
	C748.317261,62.028404 729.158142,62.112110 709.070862,62.018448 
	C642.870789,62.013580 576.670715,62.006687 510.470612,62.010803 
	C507.647247,62.010979 504.823883,62.113029 501.072845,62.024990 
	C435.383392,62.017178 369.693970,62.003704 304.004547,62.035065 
	C302.405426,62.035828 300.806549,62.535378 298.553955,62.226955 
	C294.237427,62.060791 289.920654,61.745930 285.604370,61.751938 
	C250.456833,61.800861 215.309067,61.855160 180.162292,62.064796 
	C175.398422,62.093208 170.577209,62.661045 165.889893,63.547031 
	C148.823486,66.772873 136.199051,76.746895 127.067368,90.988426 
	C121.940605,98.983994 117.851089,107.695564 113.812889,116.327179 
	C106.367142,132.242401 98.984398,148.203217 92.218620,164.413483 
	C88.952637,172.238525 87.540916,180.818420 84.595886,188.800568 
	C78.917953,204.189835 72.664734,219.366074 66.860016,234.710083 
	C65.865250,237.339584 65.911957,240.363083 65.259689,243.919189 
	C63.167194,248.230286 60.558987,252.373001 59.085602,256.886200 
	C55.626213,267.482849 54.793770,278.370300 55.872864,289.557343 
	C56.800972,299.179108 60.388302,307.536438 65.794670,315.227661 
	C71.028740,322.673828 76.427475,330.021362 82.091064,337.144135 
	C89.252014,346.150024 96.358627,355.196564 108.847191,357.548676 
	C115.042946,358.715607 120.898750,362.102325 127.092407,362.765289 
	C135.716690,363.688507 144.533920,362.620667 153.231857,363.088135 
	C166.445618,363.798279 179.005051,361.219299 190.895676,355.898315 
	C199.283417,352.144867 208.009155,348.295868 215.042404,342.589508 
	C223.177750,335.988922 230.479858,327.912964 236.555420,319.350555 
	C242.403763,311.108337 246.872284,301.693512 250.730804,292.294556 
	C253.787735,284.848175 254.020874,276.202332 257.315186,268.904968 
	C260.604858,261.617828 265.844666,254.971298 275.794067,254.659027 
	C276.394043,255.205963 276.904663,256.033691 277.607483,256.257233 
	C286.486725,259.081635 290.446503,265.750610 292.112701,274.364166 
	C292.938232,278.631714 294.182404,282.819366 294.975983,287.091705 
	C298.338409,305.194824 306.015167,321.173248 319.244537,334.019409 
	C330.175232,344.633514 343.216736,352.289581 357.757385,356.834320 
	C366.301514,359.504822 375.256897,360.859558 384.953430,362.944519 
z"/>
<path fill="#010101" opacity="1.000000" stroke="none" 
	d="
M130.044510,623.756714 
	C130.480026,632.047729 131.234955,640.336426 131.296814,648.630249 
	C131.594879,688.596375 131.718979,728.563782 131.878860,768.530884 
	C131.974106,792.338867 132.021408,816.146973 132.060486,840.802246 
	C132.705658,843.799744 133.336319,845.965088 134.062363,848.097961 
	C141.522446,870.014404 152.306580,879.020325 175.748810,879.861145 
	C193.487366,880.497375 211.269821,879.908936 229.445480,879.729492 
	C229.911194,877.765808 230.010406,875.938110 230.010468,874.110474 
	C230.013031,798.507202 230.006470,722.903992 230.001846,647.300720 
	C230.001373,639.501221 230.005890,631.701721 230.008102,623.902222 
	C230.149765,603.422852 229.977631,582.934509 230.563919,562.467834 
	C230.862137,552.057495 231.625885,541.498230 233.751511,531.335144 
	C238.710571,507.624603 254.500626,494.758789 277.856812,490.878265 
	C285.853302,489.549683 294.040619,488.796600 302.143463,488.774597 
	C354.610046,488.631897 407.080109,488.500793 459.541992,489.045349 
	C469.121918,489.144775 479.118134,491.125244 488.142029,494.392273 
	C509.364990,502.075989 518.434143,519.357849 521.251404,540.674377 
	C521.491150,542.488525 521.595093,544.320740 521.839355,547.006348 
	C521.955872,605.172607 522.001709,662.477173 522.031799,719.781677 
	C522.046936,748.598022 522.033630,777.414429 522.002808,806.551270 
	C522.015137,807.082214 522.057861,807.292542 522.051025,807.866211 
	C521.831238,809.178589 521.758423,810.157776 521.475769,811.072021 
	C518.810486,819.692200 511.286285,822.625610 503.669739,825.971191 
	C489.938629,822.000854 485.057129,815.791931 485.042145,802.753662 
	C485.039520,800.487061 485.860992,798.219238 485.857056,795.952820 
	C485.728058,721.876953 485.549103,647.801208 485.364349,573.725403 
	C485.337006,562.759338 485.732147,551.820679 481.095428,541.349731 
	C477.516968,533.268494 474.237946,525.466736 463.437439,525.869934 
	C463.000061,525.886292 462.546509,525.469971 461.633514,525.141235 
	C450.789093,525.051880 440.411652,525.076599 429.574402,524.992798 
	C395.667511,525.033508 362.220428,525.175964 328.773560,525.358276 
	C327.496765,525.365234 326.222046,525.757812 324.481506,525.982117 
	C312.652100,526.051086 301.286469,526.046021 289.924255,526.241455 
	C288.417145,526.267334 286.927521,527.313110 284.995850,527.931396 
	C274.682312,527.283020 267.591492,535.725220 267.687500,546.576538 
	C267.129028,552.492371 266.539581,558.115601 266.503265,563.742371 
	C266.380920,582.702759 266.439850,601.664490 266.479462,620.625549 
	C266.483185,622.404419 266.839661,624.182556 267.035553,626.431641 
	C267.070343,635.270569 267.101929,643.638916 267.074768,652.472168 
	C267.053223,677.953552 267.090485,702.970032 267.044556,728.450928 
	C266.956238,733.737915 266.923737,738.560486 266.950134,743.382874 
	C267.188629,786.949341 267.407532,830.516113 267.781097,874.081482 
	C267.797882,876.039307 269.243439,877.984985 270.302917,880.252014 
	C272.409424,880.628540 274.236877,880.751404 276.063568,880.740906 
	C309.713348,880.547791 343.363007,880.335876 377.012787,880.142273 
	C378.498077,880.133667 379.984192,880.261536 381.469910,880.325867 
	C381.251709,880.539490 381.054138,880.784485 380.803772,880.949219 
	C380.719391,881.004639 380.500946,880.856262 380.996033,880.585327 
	C385.095215,880.203796 388.542175,880.038086 392.453094,879.955200 
	C430.232269,879.965759 467.547485,879.893555 505.334595,879.896912 
	C536.768005,879.980896 567.729492,880.010437 598.690918,879.991455 
	C626.487122,879.974426 654.283325,879.904175 682.536377,879.930176 
	C731.222412,879.994324 779.451599,880.008057 827.680603,879.933594 
	C831.438782,879.927795 835.195984,879.304382 839.382935,878.983643 
	C847.564636,877.666077 855.487915,876.946838 863.027527,874.848694 
	C873.141113,872.034241 880.246094,865.474487 882.627625,854.791016 
	C883.565857,850.582397 884.137451,846.291992 884.938110,841.568726 
	C884.995178,829.976318 885.008972,818.853882 884.981018,807.731628 
	C884.932678,788.480530 884.858459,769.229492 884.795044,749.978394 
	C884.929626,747.654602 885.178284,745.331055 885.182068,743.007080 
	C885.277100,684.513367 885.355896,626.019714 885.416504,567.526001 
	C885.448486,536.613403 885.470093,505.700775 885.427368,474.788239 
	C885.418579,468.423889 886.362549,462.523895 891.604492,458.167328 
	C898.161865,452.717346 905.080078,453.350616 912.189697,456.932068 
	C918.197510,459.958496 920.968811,464.858673 920.985779,471.533905 
	C921.302429,596.497253 921.609802,721.460632 922.045105,846.423584 
	C922.072815,854.371948 920.583313,861.865906 917.146423,868.854492 
	C909.667786,884.061279 900.022522,897.852661 884.600098,905.704773 
	C871.955688,912.142578 859.143677,917.329590 843.840820,917.297058 
	C622.196899,916.825989 400.551605,916.922791 178.906799,917.084961 
	C163.658615,917.096130 150.106979,911.880005 136.995773,905.473572 
	C128.406097,901.276489 120.627228,895.263428 112.929726,889.472778 
	C109.757164,887.086060 107.097687,883.469421 105.330162,879.860962 
	C98.840897,866.613159 94.731964,852.955811 94.830818,837.713562 
	C95.278267,768.723267 95.024956,699.728394 95.028870,630.735168 
	C95.029251,623.895447 97.333260,617.668396 101.594467,612.573242 
	C106.944511,606.176086 118.567085,605.952393 126.653595,613.317566 
	C128.069061,617.139709 129.056793,620.448181 130.044510,623.756714 
z"/>
<path fill="#FE812A" opacity="1.000000" stroke="none" 
	d="
M365.548859,393.916595 
	C372.381683,395.278625 379.197144,396.737946 386.054871,397.960175 
	C389.310272,398.540344 392.670349,399.093689 395.940552,398.908508 
	C401.950348,398.568268 407.973450,397.941803 413.911163,396.954346 
	C427.846069,394.637024 441.540619,391.275543 453.795746,383.941681 
	C462.432953,378.772949 471.003357,373.380798 478.999298,367.294525 
	C483.767151,363.665375 487.287354,358.424744 491.513947,354.049103 
	C495.854980,349.554932 500.282959,344.692230 507.196991,345.162445 
	C510.185272,345.365662 513.569763,346.684387 515.882385,348.582794 
	C522.881042,354.328033 529.030029,361.159302 536.266052,366.553192 
	C549.269470,376.246277 561.198669,387.647766 576.593262,393.773712 
	C579.562256,394.955139 582.853882,395.790771 586.029236,395.908813 
	C600.444519,396.444702 614.904968,397.414520 629.284119,396.772583 
	C641.490234,396.227692 653.803955,394.527008 665.691650,391.729492 
	C673.039490,390.000366 679.779968,385.450745 686.604187,381.812836 
	C691.895874,378.991882 697.458679,376.265961 701.911621,372.367737 
	C712.646057,362.970459 722.800598,352.910919 733.185242,343.114410 
	C733.302246,343.004059 733.353210,342.826935 733.459045,342.701141 
	C740.285645,334.583649 740.841858,334.746735 748.605896,341.998383 
	C756.460571,349.334625 765.347046,355.650970 772.651733,363.469604 
	C781.661743,373.113525 792.233398,380.171661 803.954529,385.591919 
	C813.759094,390.125885 824.042419,392.853577 835.125671,393.200378 
	C846.924805,393.569611 858.672974,395.512115 870.449402,396.707733 
	C872.757812,396.942078 875.093994,396.902435 878.323792,396.992004 
	C886.371460,396.890076 893.512634,396.785309 900.653870,396.680542 
	C901.007019,408.137390 901.564636,419.593445 901.608643,431.051453 
	C901.625244,435.376465 897.593567,437.071045 894.298889,438.691315 
	C877.810791,446.799927 860.378296,445.293304 842.854858,443.865936 
	C826.260681,442.514282 811.330383,436.122650 796.918213,428.767670 
	C785.757141,423.071838 776.393127,414.562439 768.192383,404.887390 
	C755.607727,390.040100 748.109253,372.741852 742.971985,354.222809 
	C742.764771,353.475464 742.104614,352.853760 741.156616,351.417999 
	C738.315308,358.367645 735.820618,364.908051 732.976013,371.292572 
	C730.577942,376.674622 728.075562,382.054504 725.077820,387.114563 
	C720.644836,394.597168 716.054260,402.029175 710.953613,409.064240 
	C701.668945,421.870178 689.350769,431.266815 674.559326,436.511963 
	C661.690247,441.075378 648.417236,445.275055 634.974060,447.199310 
	C624.206970,448.740540 612.752991,447.650024 601.892395,445.918121 
	C579.619263,442.366364 560.966797,430.788025 543.687622,416.838257 
	C534.360596,409.308319 530.738586,398.079132 525.234192,388.091705 
	C520.493713,379.490387 515.927368,370.788879 511.480194,362.032013 
	C509.548615,358.228668 506.179962,357.951752 503.033844,358.738586 
	C501.638306,359.087585 500.281128,361.870728 499.923553,363.743164 
	C495.386108,387.504181 482.022583,405.424255 463.758698,420.555389 
	C451.278564,430.894806 437.762482,439.169586 422.065704,442.912567 
	C411.280975,445.484283 400.012787,447.773590 389.039429,447.457184 
	C363.688202,446.726227 340.034119,439.596619 319.670898,423.628448 
	C314.850311,419.848328 309.337677,416.676422 305.372467,412.148407 
	C300.265350,406.316376 296.355042,399.427856 292.007019,392.942200 
	C288.710846,388.025482 285.045990,383.271698 282.421967,378.008270 
	C278.436157,370.013275 275.210266,361.639465 271.215942,352.395294 
	C268.869202,358.556793 266.801788,364.083679 264.662598,369.582642 
	C258.673828,384.977203 250.765274,399.170837 239.612152,411.548248 
	C224.282501,428.560760 205.601822,439.751434 183.061569,443.459167 
	C170.926437,445.455292 158.568741,447.157806 146.078812,444.929413 
	C141.837021,444.172607 137.315262,444.984863 132.528442,445.131653 
	C131.758011,443.463928 131.094803,441.752197 131.049286,440.024200 
	C130.744354,428.445953 130.468964,416.863922 130.507248,405.284180 
	C130.511215,404.082184 132.462540,402.105591 133.797928,401.816315 
	C142.179916,400.000793 150.643417,398.561676 159.935120,397.033386 
	C171.889160,396.395142 182.776825,394.756897 193.262360,390.161285 
	C201.619568,387.246216 209.700363,384.189392 217.781158,381.132568 
	C236.402634,371.407562 251.846634,358.004364 264.216919,341.037781 
	C269.252045,334.131805 269.597015,334.125000 275.896057,340.399200 
	C277.181732,341.679779 278.524567,342.902985 280.102417,344.482788 
	C280.363770,344.812927 280.515656,344.897858 280.515656,344.897858 
	C282.276947,346.567505 284.038208,348.237183 286.163513,350.431091 
	C292.007599,356.431702 297.437805,361.959656 303.006927,367.343872 
	C304.223358,368.519928 305.935791,369.182922 307.419800,370.082214 
	C314.162598,374.733215 318.986908,382.022552 327.215393,384.608093 
	C330.243591,385.559631 333.369446,386.200562 337.079590,387.299011 
	C338.487152,387.741486 339.265930,387.868103 340.044678,387.994751 
	C340.044678,387.994751 339.995148,388.016418 340.122406,388.343414 
	C348.682739,390.419159 357.115784,392.167877 365.548859,393.916595 
z"/>
<path fill="#030102" opacity="1.000000" stroke="none" 
	d="
M783.749268,490.885101 
	C787.164612,492.839722 790.041687,495.011047 793.228882,496.533112 
	C805.409119,502.349945 809.883362,513.710571 811.523010,525.408691 
	C813.590393,540.158569 813.645081,555.256165 813.709412,570.207458 
	C813.844971,601.697083 813.519714,633.190247 813.159302,664.679382 
	C813.066467,672.788757 811.661987,680.877441 806.878418,687.675293 
	C802.001770,694.605347 797.075195,701.680115 791.070190,707.569763 
	C787.394104,711.175232 781.678040,712.732849 776.822021,715.094971 
	C771.198181,717.830627 765.136292,717.389709 759.123230,717.382751 
	C714.964355,717.331665 670.805481,717.331116 626.646606,717.278748 
	C623.155823,717.274597 619.423523,717.750916 616.216553,716.719543 
	C602.439148,712.288940 591.986328,703.597778 585.034119,690.807434 
	C577.746094,677.398987 577.564880,662.777100 577.603760,648.090576 
	C577.684937,617.452820 577.639832,586.814697 577.783203,556.177368 
	C577.828735,546.450562 577.560547,536.634338 578.737915,527.018494 
	C581.447083,504.891937 597.296753,490.941772 619.075928,489.862518 
	C648.644470,488.397278 678.316345,488.927216 707.944824,488.788513 
	C729.605103,488.687103 751.267700,488.807037 772.927063,489.034424 
	C776.408325,489.070984 779.878235,490.186768 783.749268,490.885101 
M755.825928,526.549744 
	C736.908508,526.329590 717.991028,526.109375 698.429932,525.346069 
	C675.573242,525.311340 652.716614,525.276611 629.053467,525.194336 
	C626.359924,525.748047 623.666443,526.301697 620.298462,527.056702 
	C618.149658,529.606079 614.869141,531.859802 614.108398,534.771851 
	C612.861877,539.542969 613.253174,544.742065 612.709351,550.710938 
	C612.713074,558.542603 612.693359,566.374329 612.725220,574.205872 
	C612.805115,593.859375 612.908325,613.512756 612.733582,634.048706 
	C612.732422,641.996948 611.925781,650.053101 612.971558,657.861084 
	C613.896667,664.768982 616.884216,671.400696 619.327271,678.854065 
	C621.734680,679.246399 624.142944,679.985840 626.549316,679.979553 
	C670.668152,679.863098 714.786743,679.660645 758.905334,679.458801 
	C760.871704,679.449829 762.837219,679.273682 765.557007,678.992981 
	C767.634583,676.781982 770.888733,674.881409 771.569214,672.301880 
	C773.608276,664.571960 774.641541,656.576660 776.485962,648.048767 
	C776.575684,647.390808 776.743286,646.732849 776.744019,646.074829 
	C776.777466,614.095337 776.805237,582.115906 776.785767,550.136414 
	C776.784973,548.855957 776.320496,547.575745 776.003784,545.463867 
	C774.597656,539.089966 773.611389,532.517761 767.067505,528.021729 
	C763.607666,527.611877 760.147766,527.202026 755.825928,526.549744 
z"/>
<path fill="#FF7F27" opacity="1.000000" stroke="none" 
	d="
M682.079529,879.857361 
	C654.283325,879.904175 626.487122,879.974426 598.690918,879.991455 
	C567.729492,880.010437 536.768005,879.980896 505.254395,879.697632 
	C504.516266,879.188354 504.277222,879.038696 504.068787,878.638916 
	C504.367157,876.973511 504.581818,875.642883 504.893982,873.841492 
	C504.723480,869.231201 504.455475,865.091797 504.134338,860.488281 
	C504.009979,849.042114 503.938751,838.060059 504.052917,826.990295 
	C504.317902,826.792542 504.488037,826.645203 504.460815,826.579163 
	C504.360687,826.336121 504.195160,826.119995 504.054230,825.893799 
	C511.286285,822.625610 518.810486,819.692200 521.475769,811.072021 
	C521.758423,810.157776 521.831238,809.178589 522.471924,807.778198 
	C524.360596,807.135010 525.778748,806.943176 527.196960,806.751221 
	C540.074890,806.741211 552.952820,806.731201 566.760498,806.852295 
	C657.465332,806.961792 747.240479,806.940186 837.015625,806.918579 
	C845.989319,807.740845 854.956787,808.641663 863.938721,809.360962 
	C871.487061,809.965454 876.725464,813.632080 879.882812,821.153809 
	C883.751038,826.861877 884.485535,832.668884 884.101440,838.781250 
	C884.034485,839.846680 884.601685,840.951965 884.875977,842.038879 
	C884.137451,846.291992 883.565857,850.582397 882.627625,854.791016 
	C880.246094,865.474487 873.141113,872.034241 863.027527,874.848694 
	C855.487915,876.946838 847.564636,877.666077 838.916870,879.010498 
	C787.626709,879.022949 737.231934,879.016663 686.837158,879.060364 
	C685.251099,879.061768 683.665405,879.580078 682.079529,879.857361 
z"/>
<path fill="#FF8028" opacity="1.000000" stroke="none" 
	d="
M229.032745,879.865479 
	C211.269821,879.908936 193.487366,880.497375 175.748810,879.861145 
	C152.306580,879.020325 141.522446,870.014404 134.062363,848.097961 
	C133.336319,845.965088 132.705658,843.799744 132.111313,841.260376 
	C133.522293,839.405273 135.822403,838.063416 136.028488,836.453552 
	C137.575439,824.368835 143.781998,815.863953 155.028503,811.452515 
	C159.387558,809.742737 164.211639,808.803833 168.897629,808.424316 
	C180.418137,807.491211 191.985748,806.557495 203.526062,806.651306 
	C211.504395,806.716003 219.468842,808.492981 227.694214,810.207275 
	C228.310196,833.895081 228.671463,856.880249 229.032745,879.865479 
z"/>
<path fill="#020101" opacity="1.000000" stroke="none" 
	d="
M94.968704,565.816711 
	C94.959869,548.207825 94.885399,531.075439 95.020676,513.944763 
	C95.050621,510.153076 95.426369,506.269867 96.330521,502.598145 
	C98.512207,493.738373 103.635597,490.084961 112.682526,490.949707 
	C116.098152,491.276154 119.398544,492.687256 122.789345,493.431366 
	C125.675400,494.064728 126.748299,495.547729 126.801552,498.618134 
	C127.228226,523.219788 127.890495,547.817261 128.362595,572.418213 
	C128.568634,583.155823 128.443222,583.158264 118.314842,586.795166 
	C106.368164,591.085022 98.382545,586.624268 95.951530,574.207764 
	C95.442139,571.606018 95.293503,568.933655 94.968704,565.816711 
z"/>
<path fill="#FDCD77" opacity="1.000000" stroke="none" 
	d="
M836.744934,806.594727 
	C747.240479,806.940186 657.465332,806.961792 567.212036,806.863159 
	C568.510132,806.231689 570.282349,805.291809 572.063293,805.275146 
	C591.037170,805.097534 610.013000,804.938416 628.987183,805.017883 
	C697.160278,805.303284 765.333008,805.681946 833.505798,806.036316 
	C834.495667,806.041504 835.484802,806.189575 836.744934,806.594727 
z"/>
<path fill="#E6C09C" opacity="1.000000" stroke="none" 
	d="
M229.445465,879.729492 
	C228.671463,856.880249 228.310196,833.895081 228.000198,810.446045 
	C228.083755,806.584412 228.154465,803.186462 228.141724,799.788818 
	C228.081192,783.656616 227.854446,767.523499 227.950897,751.392334 
	C228.196121,710.380066 228.578995,669.368774 228.927383,628.357178 
	C228.938522,627.044678 229.174606,625.734192 229.656982,624.162476 
	C230.005890,631.701721 230.001373,639.501221 230.001846,647.300720 
	C230.006470,722.903992 230.013031,798.507202 230.010468,874.110474 
	C230.010406,875.938110 229.911194,877.765808 229.445465,879.729492 
z"/>
<path fill="#B7847E" opacity="1.000000" stroke="none" 
	d="
M522.033203,806.230774 
	C522.033630,777.414429 522.046936,748.598022 522.031799,719.781677 
	C522.001709,662.477173 521.955872,605.172607 521.967407,547.394409 
	C522.326904,548.485596 522.903503,550.050049 522.905457,551.615295 
	C523.011230,634.854309 523.070251,718.093384 523.116028,801.332458 
	C523.116760,802.649780 522.893311,803.967224 522.486328,805.756714 
	C522.198120,806.228882 522.033203,806.230774 522.033203,806.230774 
z"/>
<path fill="#E5BD93" opacity="1.000000" stroke="none" 
	d="
M884.938110,841.568726 
	C884.601685,840.951965 884.034485,839.846680 884.101440,838.781250 
	C884.485535,832.668884 883.751038,826.861877 880.041931,821.361267 
	C880.855286,821.697388 881.703857,822.397339 883.999207,824.290710 
	C883.999207,809.687378 883.975037,796.258179 884.006775,782.829102 
	C884.032227,772.074402 884.125488,761.319885 884.491821,750.271851 
	C884.858459,769.229492 884.932678,788.480530 884.981018,807.731628 
	C885.008972,818.853882 884.995178,829.976318 884.938110,841.568726 
z"/>
<path fill="#EBD2BB" opacity="1.000000" stroke="none" 
	d="
M130.071594,623.329224 
	C129.056793,620.448181 128.069061,617.139709 126.979721,613.451538 
	C127.265747,609.873657 127.862206,606.683777 127.991745,603.475037 
	C128.182693,598.745178 128.041046,594.001831 128.394043,589.280945 
	C128.962250,600.487854 129.530472,611.694824 130.071594,623.329224 
z"/>
<path fill="#B68791" opacity="1.000000" stroke="none" 
	d="
M900.890137,396.500183 
	C893.512634,396.785309 886.371460,396.890076 878.797485,396.951233 
	C885.222717,396.479553 892.081604,396.065125 898.937378,395.604340 
	C899.715027,395.552094 900.475098,395.238861 901.577759,394.949158 
	C901.650208,395.341034 901.388306,395.830414 900.890137,396.500183 
z"/>
<path fill="#FDCD77" opacity="1.000000" stroke="none" 
	d="
M522.002808,806.551270 
	C522.033203,806.230774 522.198120,806.228882 522.270142,806.192627 
	C523.722473,806.218567 525.102905,806.280701 526.840088,806.546997 
	C525.778748,806.943176 524.360596,807.135010 522.521484,807.414917 
	C522.057861,807.292542 522.015137,807.082214 522.002808,806.551270 
z"/>
<path fill="#FF7F27" opacity="1.000000" stroke="none" 
	d="
M299.207581,62.802288 
	C300.806549,62.535378 302.405426,62.035828 304.004547,62.035065 
	C369.693970,62.003704 435.383392,62.017178 501.536591,62.553967 
	C502.053772,86.700233 502.107208,110.317520 502.089874,134.406067 
	C502.002258,171.883423 501.985413,208.889511 501.707520,245.992310 
	C501.242004,246.391388 501.037567,246.693741 500.428284,246.939789 
	C497.742065,246.588989 495.460846,246.038620 493.179291,246.037140 
	C423.262726,245.991638 353.346161,246.002914 283.429565,245.986298 
	C281.276276,245.985794 279.123016,245.782501 276.746216,245.397339 
	C276.294067,243.741455 276.065521,242.362015 275.917786,240.583069 
	C276.328278,239.278656 276.813202,238.398727 276.963440,237.464935 
	C278.404694,228.507416 279.842987,219.548767 281.175385,210.574585 
	C282.513794,201.559891 283.840759,192.540848 284.965942,183.497971 
	C285.874786,176.193924 286.287903,168.826462 287.263824,161.532990 
	C288.361145,153.332153 289.843231,145.182816 291.499634,136.782578 
	C292.228119,132.480774 292.511047,128.394287 293.025238,124.337128 
	C293.864075,117.718445 294.909912,111.126144 295.766022,104.509468 
	C296.895905,95.776810 298.119659,87.049103 298.926941,78.284630 
	C299.399048,73.158722 299.138489,67.965324 299.207581,62.802288 
z"/>
<path fill="#FF7F27" opacity="1.000000" stroke="none" 
	d="
M709.998962,62.167442 
	C729.158142,62.112110 748.317261,62.028404 767.476440,62.008358 
	C793.804565,61.980808 820.133179,61.907230 846.460632,62.038761 
	C860.958679,62.111195 872.356079,68.453552 881.381226,79.725929 
	C890.554321,91.183022 896.747070,104.051132 901.542786,117.835739 
	C903.977478,124.834030 908.163147,131.207367 910.859070,138.134933 
	C913.671021,145.360413 915.614014,152.922012 917.988281,160.320145 
	C923.332825,176.972763 928.428589,193.712631 934.165771,210.229340 
	C938.369141,222.330338 943.431641,234.132919 948.004395,246.851471 
	C946.264099,248.089600 944.630981,248.941544 942.997131,248.942810 
	C873.972717,248.996674 804.948242,248.974655 735.610657,248.866272 
	C734.810730,247.841370 734.323853,246.912201 733.995483,245.650635 
	C733.996216,242.975388 734.037354,240.598923 733.647827,238.295242 
	C731.489990,225.532425 729.173645,212.796417 727.019958,200.032913 
	C725.646973,191.896194 724.637573,183.695618 723.151794,175.581024 
	C720.853943,163.031082 718.288147,150.530182 715.902771,137.567902 
	C715.313477,131.767410 714.302490,126.422691 714.072327,121.044548 
	C713.519775,108.134956 713.645325,95.190575 712.854492,82.299644 
	C712.513977,76.747749 710.507202,71.307961 709.434448,65.782867 
	C709.215820,64.656715 709.790161,63.376591 709.998962,62.167442 
z"/>
<path fill="#3F48CC" opacity="1.000000" stroke="none" 
	d="
M275.836945,240.982559 
	C276.065521,242.362015 276.294067,243.741455 276.413910,245.655106 
	C275.945862,248.905716 275.586578,251.622131 275.227264,254.338547 
	C265.844666,254.971298 260.604858,261.617828 257.315186,268.904968 
	C254.020874,276.202332 253.787735,284.848175 250.730804,292.294556 
	C246.872284,301.693512 242.403763,311.108337 236.555420,319.350555 
	C230.479858,327.912964 223.177750,335.988922 215.042404,342.589508 
	C208.009155,348.295868 199.283417,352.144867 190.895676,355.898315 
	C179.005051,361.219299 166.445618,363.798279 153.231857,363.088135 
	C144.533920,362.620667 135.716690,363.688507 127.092407,362.765289 
	C120.898750,362.102325 115.042946,358.715607 108.847191,357.548676 
	C96.358627,355.196564 89.252014,346.150024 82.091064,337.144135 
	C76.427475,330.021362 71.028740,322.673828 65.794670,315.227661 
	C60.388302,307.536438 56.800972,299.179108 55.872864,289.557343 
	C54.793770,278.370300 55.626213,267.482849 59.085602,256.886200 
	C60.558987,252.373001 63.167194,248.230286 65.637695,243.648087 
	C71.017715,242.215103 76.019722,241.053223 81.426506,239.998322 
	C83.779495,240.403763 85.727554,240.961853 87.675964,240.963074 
	C150.396271,241.002731 213.116608,240.988602 275.836945,240.982559 
z"/>
<path fill="#3F48CB" opacity="1.000000" stroke="none" 
	d="
M733.837036,245.983017 
	C734.323853,246.912201 734.810730,247.841370 735.689941,249.200211 
	C736.075378,251.071411 736.068298,252.512955 736.061279,253.954498 
	C726.715515,266.370605 721.748108,280.329529 719.704346,295.760559 
	C718.966675,301.330414 715.489929,306.862885 712.210571,311.698608 
	C706.516602,320.095184 700.067139,327.986328 693.784973,335.971863 
	C692.391602,337.743042 690.546570,339.300385 688.620789,340.487885 
	C677.665833,347.242676 666.788391,354.156403 655.514038,360.340393 
	C651.948975,362.295837 647.264038,362.730621 643.055542,362.886414 
	C633.410767,363.243317 623.742737,362.921631 614.086304,363.042725 
	C610.805298,363.083862 607.501770,364.055237 604.259766,363.837891 
	C599.544800,363.521851 594.620300,363.222900 590.245178,361.642822 
	C582.841797,358.969116 575.321655,356.041260 568.748596,351.821533 
	C563.129333,348.214142 558.581116,342.824036 553.895203,337.902466 
	C545.624451,329.215851 539.594360,318.930756 534.506104,308.189362 
	C531.727295,302.323303 530.148315,295.888397 528.034607,289.707855 
	C525.157471,281.295319 522.899658,272.599915 519.216736,264.556763 
	C516.325012,258.241455 511.111298,253.674713 502.607574,254.244904 
	C501.783478,253.099472 501.460785,252.432495 501.097961,251.368774 
	C500.982880,249.646713 500.907990,248.321396 500.833099,246.996094 
	C501.037567,246.693741 501.242004,246.391388 502.175201,246.031433 
	C579.881653,245.976898 656.859314,245.979950 733.837036,245.983017 
z"/>
<path fill="#FFC659" opacity="1.000000" stroke="none" 
	d="
M500.428284,246.939789 
	C500.907990,248.321396 500.982880,249.646713 500.952576,251.696091 
	C499.376190,253.690567 497.898254,254.953293 496.435059,256.232880 
	C492.308472,259.841675 488.333008,263.535675 489.114288,269.795166 
	C484.488586,294.855804 476.639801,318.481659 458.195801,337.857056 
	C453.635101,340.680634 449.760315,343.339172 445.895294,346.011841 
	C443.296295,347.809082 440.711090,349.626251 438.119690,351.434509 
	C431.407501,353.675507 424.695282,355.916473 417.341919,358.549408 
	C405.935760,360.121307 395.170654,361.300171 384.407074,362.492798 
	C384.270599,362.507935 384.153473,362.697815 384.027313,362.806091 
	C375.256897,360.859558 366.301514,359.504822 357.757385,356.834320 
	C343.216736,352.289581 330.175232,344.633514 319.244537,334.019409 
	C306.015167,321.173248 298.338409,305.194824 294.975983,287.091705 
	C294.182404,282.819366 292.938232,278.631714 292.112701,274.364166 
	C290.446503,265.750610 286.486725,259.081635 277.607483,256.257233 
	C276.904663,256.033691 276.394043,255.205963 275.510681,254.498779 
	C275.586578,251.622131 275.945862,248.905716 276.637451,245.931534 
	C279.123016,245.782501 281.276276,245.985794 283.429565,245.986298 
	C353.346161,246.002914 423.262726,245.991638 493.179291,246.037140 
	C495.460846,246.038620 497.742065,246.588989 500.428284,246.939789 
z"/>
<path fill="#FFC659" opacity="1.000000" stroke="none" 
	d="
M736.476074,253.974762 
	C736.068298,252.512955 736.075378,251.071411 736.003052,249.295929 
	C804.948242,248.974655 873.972717,248.996674 942.997131,248.942810 
	C944.630981,248.941544 946.264099,248.089600 947.988159,247.220840 
	C956.421387,257.939117 957.822449,270.395355 956.723694,283.983612 
	C955.668640,297.032166 950.611328,308.487000 944.777893,319.546478 
	C941.283997,326.170441 935.620239,331.885040 930.119263,337.161346 
	C921.403503,345.521088 912.365417,353.641876 900.330750,357.298309 
	C884.384705,362.143219 868.116760,365.365356 851.493347,363.738647 
	C844.066895,363.011932 836.844177,359.693542 829.655334,357.188568 
	C822.056519,354.540771 814.253479,352.137604 807.171265,348.423218 
	C794.235229,341.638702 780.981262,335.204315 774.559631,320.320221 
	C768.090149,305.325439 758.642029,291.640808 755.488281,275.182678 
	C754.506653,270.060028 752.484314,265.105560 750.627075,260.191742 
	C749.109863,256.177490 745.858459,254.706451 741.601257,254.931183 
	C740.051941,255.012970 738.462219,254.329391 736.476074,253.974762 
z"/>
<path fill="#99D9EA" opacity="1.000000" stroke="none" 
	d="
M709.534912,62.092945 
	C709.790161,63.376591 709.215820,64.656715 709.434448,65.782867 
	C710.507202,71.307961 712.513977,76.747749 712.854492,82.299644 
	C713.645325,95.190575 713.519775,108.134956 714.072327,121.044548 
	C714.302490,126.422691 715.313477,131.767410 715.537354,137.560135 
	C709.497131,134.538788 703.448303,133.085800 696.818176,133.056366 
	C660.910217,132.897049 625.003357,132.468964 589.095398,132.319031 
	C580.142029,132.281662 571.187683,133.082214 562.229919,133.197571 
	C557.937988,133.252838 553.628052,132.240509 549.341797,132.345642 
	C533.611267,132.731461 517.887146,133.383179 502.160645,133.934814 
	C502.107208,110.317520 502.053772,86.700233 502.000427,62.625282 
	C504.823883,62.113029 507.647247,62.010979 510.470612,62.010803 
	C576.670715,62.006687 642.870789,62.013580 709.534912,62.092945 
z"/>
<path fill="#99D8EA" opacity="1.000000" stroke="none" 
	d="
M81.021729,239.891342 
	C76.019722,241.053223 71.017715,242.215103 65.746628,243.290771 
	C65.911957,240.363083 65.865250,237.339584 66.860016,234.710083 
	C72.664734,219.366074 78.917953,204.189835 84.595886,188.800568 
	C87.540916,180.818420 88.952637,172.238525 92.218620,164.413483 
	C98.984398,148.203217 106.367142,132.242401 113.812889,116.327179 
	C117.851089,107.695564 121.940605,98.983994 127.067368,90.988426 
	C136.199051,76.746895 148.823486,66.772873 165.889893,63.547031 
	C170.577209,62.661045 175.398422,62.093208 180.162292,62.064796 
	C215.309067,61.855160 250.456833,61.800861 285.604370,61.751938 
	C289.920654,61.745930 294.237427,62.060791 298.880768,62.514622 
	C299.138489,67.965324 299.399048,73.158722 298.926941,78.284630 
	C298.119659,87.049103 296.895905,95.776810 295.766022,104.509468 
	C294.909912,111.126144 293.864075,117.718445 293.025238,124.337128 
	C292.511047,128.394287 292.228119,132.480774 291.113739,136.761261 
	C288.688202,136.043503 287.049683,134.463226 285.282379,134.302902 
	C275.705048,133.434082 266.103058,132.580765 256.495605,132.376312 
	C247.709534,132.189346 238.902328,132.755112 230.110535,133.131638 
	C215.852264,133.742279 201.586945,134.287766 187.349152,135.231216 
	C181.117401,135.644165 174.971939,137.430679 168.741730,137.779388 
	C158.332336,138.362000 148.235519,139.505493 139.436462,145.818726 
	C133.270477,150.242767 125.839439,153.531372 121.066505,159.115982 
	C114.581184,166.704178 109.206215,175.582275 104.937386,184.651932 
	C96.396820,202.797409 88.931183,221.448822 81.021729,239.891342 
z"/>
<path fill="#E1D4E1" opacity="1.000000" stroke="none" 
	d="
M384.490356,362.875305 
	C384.153473,362.697815 384.270599,362.507935 384.407074,362.492798 
	C395.170654,361.300171 405.935760,360.121307 416.890167,358.680695 
	C411.006409,359.965393 405.001556,361.948639 398.837341,362.910736 
	C394.317719,363.616150 389.588959,362.981750 384.490356,362.875305 
z"/>
<path fill="#A97481" opacity="1.000000" stroke="none" 
	d="
M192.985947,390.019531 
	C182.776825,394.756897 171.889160,396.395142 160.342468,397.028992 
	C161.028809,396.314850 162.246231,394.948181 163.284180,395.073090 
	C173.644882,396.319763 182.800186,391.945862 192.662872,389.374603 
	C193.030960,389.595337 192.985947,390.019531 192.985947,390.019531 
z"/>
<path fill="#CB9D8E" opacity="1.000000" stroke="none" 
	d="
M193.262360,390.161285 
	C192.985947,390.019531 193.030960,389.595337 193.051453,389.382935 
	C201.069870,386.456665 209.067795,383.742798 217.423431,381.080750 
	C209.700363,384.189392 201.619568,387.246216 193.262360,390.161285 
z"/>
<path fill="#C69489" opacity="1.000000" stroke="none" 
	d="
M307.205444,369.794128 
	C305.935791,369.182922 304.223358,368.519928 303.006927,367.343872 
	C297.437805,361.959656 292.007599,356.431702 286.351624,350.746643 
	C289.176025,353.039703 292.280090,355.428772 295.151794,358.070465 
	C299.188629,361.784058 303.052948,365.685150 307.205444,369.794128 
z"/>
<path fill="#CDB9CC" opacity="1.000000" stroke="none" 
	d="
M438.453522,351.413239 
	C440.711090,349.626251 443.296295,347.809082 445.895294,346.011841 
	C449.760315,343.339172 453.635101,340.680634 457.882263,337.954102 
	C451.768341,342.392059 445.277863,346.891998 438.453522,351.413239 
z"/>
<path fill="#D4BED2" opacity="1.000000" stroke="none" 
	d="
M489.396240,269.603455 
	C488.333008,263.535675 492.308472,259.841675 496.435059,256.232880 
	C497.898254,254.953293 499.376190,253.690567 500.992737,252.092834 
	C501.460785,252.432495 501.783478,253.099472 502.186035,253.990753 
	C496.477814,257.961792 490.900452,261.883087 489.396240,269.603455 
z"/>
<path fill="#C69A98" opacity="1.000000" stroke="none" 
	d="
M365.329407,393.651123 
	C357.115784,392.167877 348.682739,390.419159 340.114075,388.317688 
	C348.355682,389.771851 356.732849,391.578735 365.329407,393.651123 
z"/>
<path fill="#C69A98" opacity="1.000000" stroke="none" 
	d="
M339.822876,387.790649 
	C339.265930,387.868103 338.487152,387.741486 337.516846,387.392212 
	C338.083893,387.308563 338.842468,387.447540 339.822876,387.790649 
z"/>
<path fill="#C69489" opacity="1.000000" stroke="none" 
	d="
M280.537354,344.762329 
	C280.515656,344.897858 280.363770,344.812927 280.335999,344.783264 
	C280.391846,344.711365 280.475464,344.669098 280.537354,344.762329 
z"/>
<path fill="#FEC659" opacity="1.000000" stroke="none" 
	d="
M504.187469,860.952332 
	C504.455475,865.091797 504.723480,869.231201 504.705414,874.141602 
	C503.669067,875.601562 502.974487,876.806641 502.159363,876.894592 
	C497.430267,877.404785 492.675995,877.873962 487.924255,877.942749 
	C477.496063,878.093628 467.063934,877.958862 456.634247,878.042297 
	C455.095184,878.054565 453.560577,878.620544 451.670502,878.834961 
	C447.886688,878.830139 444.456329,878.995605 441.025848,878.998169 
	C426.399231,879.008972 411.772491,878.941040 397.146149,878.992737 
	C395.426117,878.998840 393.708069,879.565552 391.989105,879.872437 
	C388.542175,880.038086 385.095215,880.203796 380.997864,880.592651 
	C343.611725,880.167480 306.876007,879.519104 270.099335,878.881287 
	C270.058411,878.891785 270.078064,878.973999 270.179626,878.590027 
	C269.866150,876.788391 269.451141,875.370667 269.019104,873.569214 
	C268.947601,872.420593 268.893097,871.655701 268.890808,870.434082 
	C268.961761,854.622986 268.998779,839.268555 268.964020,823.914368 
	C268.961243,822.696655 268.460876,821.480103 268.073456,819.790100 
	C267.987488,790.756165 268.037384,762.195190 268.012207,733.634216 
	C268.010559,731.751343 267.435913,729.869080 267.127747,727.986511 
	C267.090485,702.970032 267.053223,677.953552 267.398560,652.197998 
	C267.809570,640.340149 267.838013,629.221375 267.904663,617.628906 
	C267.962402,597.240601 267.987091,577.325867 267.996826,557.411194 
	C267.998627,553.702637 267.940460,549.994141 267.909973,546.285583 
	C267.591492,535.725220 274.682312,527.283020 285.378906,527.896118 
	C288.312653,527.528870 290.429169,526.994263 292.546204,526.992188 
	C322.010376,526.963440 351.474640,527.024353 380.938782,526.991272 
	C382.654663,526.989380 384.369812,526.370178 386.548340,526.020752 
	C401.186188,525.976562 415.361023,525.949890 430.050842,525.925049 
	C434.697113,525.954834 438.830994,526.088745 442.959015,525.986084 
	C449.341614,525.827454 455.720215,525.507080 462.100494,525.255310 
	C462.546509,525.469971 463.000061,525.886292 463.437439,525.869934 
	C474.237946,525.466736 477.516968,533.268494 481.095428,541.349731 
	C485.732147,551.820679 485.337006,562.759338 485.364349,573.725403 
	C485.549103,647.801208 485.728058,721.876953 485.857056,795.952820 
	C485.860992,798.219238 485.039520,800.487061 485.042145,802.753662 
	C485.057129,815.791931 489.938629,822.000854 503.669739,825.971191 
	C504.195160,826.119995 504.360687,826.336121 504.460815,826.579163 
	C504.488037,826.645203 504.317902,826.792542 503.808838,827.310364 
	C503.379333,840.189270 503.379333,852.660461 503.379333,865.131653 
	C503.511749,865.152466 503.644196,865.173340 503.776611,865.194153 
	C503.913574,863.780212 504.050507,862.366272 504.187469,860.952332 
M330.335327,670.166138 
	C329.228119,658.613892 322.513489,654.051331 312.477051,653.687988 
	C303.728119,653.371216 296.411652,659.941040 294.710815,669.561829 
	C294.475800,671.366394 294.039429,673.170593 294.036438,674.975525 
	C294.000031,697.063965 294.008545,719.152466 294.076630,741.240784 
	C294.081543,742.834595 294.640625,744.426636 294.997223,746.784485 
	C295.336761,748.055359 295.577667,749.362732 296.031403,750.591431 
	C299.669098,760.442444 310.961914,764.698669 320.509674,760.182556 
	C327.020447,757.103027 329.431335,751.499512 331.679260,744.589417 
	C331.783234,744.105042 331.977722,743.620667 331.978180,743.136230 
	C332.000153,720.174622 332.022217,697.212891 331.964844,674.251465 
	C331.961853,673.044067 331.269104,671.838379 330.335327,670.166138 
z"/>
<path fill="#E0D6E0" opacity="1.000000" stroke="none" 
	d="
M268.838562,870.890808 
	C268.893097,871.655701 268.947601,872.420593 269.013031,873.959839 
	C269.375336,876.147461 269.726685,877.560730 270.078064,878.973999 
	C270.078064,878.973999 270.058411,878.891785 270.064148,879.147461 
	C270.054413,879.580811 270.038971,879.758545 270.023499,879.936279 
	C269.243439,877.984985 267.797882,876.039307 267.781097,874.081482 
	C267.407532,830.516113 267.188629,786.949341 266.950134,743.382874 
	C266.923737,738.560486 266.956238,733.737915 267.044586,728.450928 
	C267.435913,729.869080 268.010559,731.751343 268.012207,733.634216 
	C268.037384,762.195190 267.987488,790.756165 268.048279,820.239441 
	C268.149506,833.960083 268.108063,846.758850 268.196259,859.556702 
	C268.222321,863.335999 268.614288,867.112854 268.838562,870.890808 
z"/>
<path fill="#E7AA62" opacity="1.000000" stroke="none" 
	d="
M682.536377,879.930176 
	C683.665405,879.580078 685.251099,879.061768 686.837158,879.060364 
	C737.231934,879.016663 787.626709,879.022949 838.487549,878.994873 
	C835.195984,879.304382 831.438782,879.927795 827.680603,879.933594 
	C779.451599,880.008057 731.222412,879.994324 682.536377,879.930176 
z"/>
<path fill="#B49BB1" opacity="1.000000" stroke="none" 
	d="
M267.687500,546.576538 
	C267.940460,549.994141 267.998627,553.702637 267.996826,557.411194 
	C267.987091,577.325867 267.962402,597.240601 267.714722,617.950623 
	C267.335175,621.151001 267.183777,623.555969 267.032349,625.960999 
	C266.839661,624.182556 266.483185,622.404419 266.479462,620.625549 
	C266.439850,601.664490 266.380920,582.702759 266.503265,563.742371 
	C266.539581,558.115601 267.129028,552.492371 267.687500,546.576538 
z"/>
<path fill="#F0EBF0" opacity="1.000000" stroke="none" 
	d="
M270.302917,880.252014 
	C270.038971,879.758545 270.054413,879.580811 270.105042,879.136963 
	C306.876007,879.519104 343.611725,880.167480 380.345642,880.808472 
	C380.500946,880.856262 380.719391,881.004639 380.803772,880.949219 
	C381.054138,880.784485 381.251709,880.539490 381.469910,880.325867 
	C379.984192,880.261536 378.498077,880.133667 377.012787,880.142273 
	C343.363007,880.335876 309.713348,880.547791 276.063568,880.740906 
	C274.236877,880.751404 272.409424,880.628540 270.302917,880.252014 
z"/>
<path fill="#E1D3E0" opacity="1.000000" stroke="none" 
	d="
M392.453094,879.955200 
	C393.708069,879.565552 395.426117,878.998840 397.146149,878.992737 
	C411.772491,878.941040 426.399231,879.008972 441.025848,878.998169 
	C444.456329,878.995605 447.886688,878.830139 452.136169,878.847839 
	C469.965210,878.961914 486.975159,878.967834 503.985107,878.973694 
	C504.277222,879.038696 504.516266,879.188354 504.782471,879.622070 
	C467.547485,879.893555 430.232269,879.965759 392.453094,879.955200 
z"/>
<path fill="#A1829E" opacity="1.000000" stroke="none" 
	d="
M429.535858,525.923218 
	C415.361023,525.949890 401.186188,525.976562 386.073853,525.973877 
	C365.073029,525.953186 345.009705,525.961975 324.946381,525.970703 
	C326.222046,525.757812 327.496765,525.365234 328.773560,525.358276 
	C362.220428,525.175964 395.667511,525.033508 429.427612,525.184753 
	C429.740692,525.485229 429.535858,525.923218 429.535858,525.923218 
z"/>
<path fill="#D5C8D5" opacity="1.000000" stroke="none" 
	d="
M324.481506,525.982056 
	C345.009705,525.961975 365.073029,525.953186 385.610840,525.991394 
	C384.369812,526.370178 382.654663,526.989380 380.938782,526.991272 
	C351.474640,527.024353 322.010376,526.963440 292.546204,526.992188 
	C290.429169,526.994263 288.312653,527.528870 285.812836,527.851196 
	C286.927521,527.313110 288.417145,526.267334 289.924255,526.241455 
	C301.286469,526.046021 312.652100,526.051086 324.481506,525.982056 
z"/>
<path fill="#E5DDE5" opacity="1.000000" stroke="none" 
	d="
M267.035553,626.431641 
	C267.183777,623.555969 267.335175,621.151001 267.676514,618.424255 
	C267.838013,629.221375 267.809570,640.340149 267.457336,651.733154 
	C267.101929,643.638916 267.070343,635.270569 267.035553,626.431641 
z"/>
<path fill="#F1ECF1" opacity="1.000000" stroke="none" 
	d="
M430.050842,525.925049 
	C429.535858,525.923218 429.740692,525.485229 429.887451,525.293274 
	C440.411652,525.076599 450.789093,525.051880 461.633514,525.141235 
	C455.720215,525.507080 449.341614,525.827454 442.959015,525.986084 
	C438.830994,526.088745 434.697113,525.954834 430.050842,525.925049 
z"/>
<path fill="#FFC659" opacity="1.000000" stroke="none" 
	d="
M776.067383,648.684998 
	C774.641541,656.576660 773.608276,664.571960 771.569214,672.301880 
	C770.888733,674.881409 767.634583,676.781982 765.034912,678.679565 
	C762.706543,678.226440 760.900330,677.966614 759.093872,677.965088 
	C728.505066,677.940125 697.916199,677.924500 667.327393,677.956421 
	C651.205261,677.973267 635.083252,678.085327 618.961182,678.154358 
	C616.884216,671.400696 613.896667,664.768982 612.971558,657.861084 
	C611.925781,650.053101 612.732422,641.996948 613.199585,633.322266 
	C613.773926,631.945190 613.976257,631.294556 613.976746,630.643860 
	C613.995605,604.893127 614.010315,579.142273 613.954712,553.391724 
	C613.952087,552.180603 613.302185,550.970947 612.953735,549.760620 
	C613.253174,544.742065 612.861877,539.542969 614.108398,534.771851 
	C614.869141,531.859802 618.149658,529.606079 621.101318,527.014099 
	C627.720825,526.998657 633.537476,527.042175 639.354187,527.050232 
	C666.607666,527.088013 693.861145,527.115906 721.370361,527.467041 
	C734.635071,528.198303 747.642822,528.662109 760.654236,528.974121 
	C763.045959,529.031494 765.452576,528.473206 767.852295,528.199097 
	C773.611389,532.517761 774.597656,539.089966 775.972534,546.314575 
	C775.983337,581.005127 776.025330,614.845093 776.067383,648.684998 
z"/>
<path fill="#DFD6DF" opacity="1.000000" stroke="none" 
	d="
M619.144226,678.504211 
	C635.083252,678.085327 651.205261,677.973267 667.327393,677.956421 
	C697.916199,677.924500 728.505066,677.940125 759.093872,677.965088 
	C760.900330,677.966614 762.706543,678.226440 764.658020,678.770752 
	C762.837219,679.273682 760.871704,679.449829 758.905334,679.458801 
	C714.786743,679.660645 670.668152,679.863098 626.549316,679.979553 
	C624.142944,679.985840 621.734680,679.246399 619.144226,678.504211 
z"/>
<path fill="#D6C4D5" opacity="1.000000" stroke="none" 
	d="
M721.114624,527.147400 
	C693.861145,527.115906 666.607666,527.088013 639.354187,527.050232 
	C633.537476,527.042175 627.720825,526.998657 621.438477,526.913452 
	C623.666443,526.301697 626.359924,525.748047 629.826172,525.417175 
	C653.423767,525.723083 676.248718,525.806152 699.073608,525.889160 
	C717.991028,526.109375 736.908508,526.329590 755.912842,526.840759 
	C744.371399,527.137024 732.743042,527.142212 721.114624,527.147400 
z"/>
<path fill="#A687A4" opacity="1.000000" stroke="none" 
	d="
M776.276672,648.366882 
	C776.025330,614.845093 775.983337,581.005127 776.006714,546.730347 
	C776.320496,547.575745 776.784973,548.855957 776.785767,550.136414 
	C776.805237,582.115906 776.777466,614.095337 776.744019,646.074829 
	C776.743286,646.732849 776.575684,647.390808 776.276672,648.366882 
z"/>
<path fill="#F7F6F9" opacity="1.000000" stroke="none" 
	d="
M612.831543,550.235779 
	C613.302185,550.970947 613.952087,552.180603 613.954712,553.391724 
	C614.010315,579.142273 613.995605,604.893127 613.976746,630.643860 
	C613.976257,631.294556 613.773926,631.945190 613.333923,632.880981 
	C612.908325,613.512756 612.805115,593.859375 612.725220,574.205872 
	C612.693359,566.374329 612.713074,558.542603 612.831543,550.235779 
z"/>
<path fill="#874F81" opacity="1.000000" stroke="none" 
	d="
M698.751770,525.617615 
	C676.248718,525.806152 653.423767,525.723083 630.229370,525.440918 
	C652.716614,525.276611 675.573242,525.311340 698.751770,525.617615 
z"/>
<path fill="#FAF5F4" opacity="1.000000" stroke="none" 
	d="
M721.370361,527.467041 
	C732.743042,527.142212 744.371399,527.137024 756.343872,526.961975 
	C760.147766,527.202026 763.607666,527.611877 767.459900,528.110413 
	C765.452576,528.473206 763.045959,529.031494 760.654236,528.974121 
	C747.642822,528.662109 734.635071,528.198303 721.370361,527.467041 
z"/>
<path fill="#FBFAFA" opacity="1.000000" stroke="none" 
	d="
M504.068787,878.638916 
	C486.975159,878.967834 469.965210,878.961914 452.489563,878.943237 
	C453.560577,878.620544 455.095184,878.054565 456.634247,878.042297 
	C467.063934,877.958862 477.496063,878.093628 487.924255,877.942749 
	C492.675995,877.873962 497.430267,877.404785 502.159363,876.894592 
	C502.974487,876.806641 503.669067,875.601562 504.607910,874.612427 
	C504.581818,875.642883 504.367157,876.973511 504.068787,878.638916 
z"/>
<path fill="#FAEEDC" opacity="1.000000" stroke="none" 
	d="
M504.134338,860.488281 
	C504.050507,862.366272 503.913574,863.780212 503.776611,865.194153 
	C503.644196,865.173340 503.511749,865.152466 503.379333,865.131653 
	C503.379333,852.660461 503.379333,840.189270 503.623413,827.398010 
	C503.938751,838.060059 504.009979,849.042114 504.134338,860.488281 
z"/>
<path fill="#01A2E8" opacity="1.000000" stroke="none" 
	d="
M502.089874,134.406067 
	C517.887146,133.383179 533.611267,132.731461 549.341797,132.345642 
	C553.628052,132.240509 557.937988,133.252838 562.229919,133.197571 
	C571.187683,133.082214 580.142029,132.281662 589.095398,132.319031 
	C625.003357,132.468964 660.910217,132.897049 696.818176,133.056366 
	C703.448303,133.085800 709.497131,134.538788 715.470703,138.000702 
	C718.288147,150.530182 720.853943,163.031082 723.151794,175.581024 
	C724.637573,183.695618 725.646973,191.896194 727.019958,200.032913 
	C729.173645,212.796417 731.489990,225.532425 733.647827,238.295242 
	C734.037354,240.598923 733.996216,242.975388 733.995483,245.650635 
	C656.859314,245.979950 579.881653,245.976898 502.436249,245.934723 
	C501.985413,208.889511 502.002258,171.883423 502.089874,134.406067 
z"/>
<path fill="#00A2E8" opacity="1.000000" stroke="none" 
	d="
M81.426498,239.998322 
	C88.931183,221.448822 96.396820,202.797409 104.937386,184.651932 
	C109.206215,175.582275 114.581184,166.704178 121.066505,159.115982 
	C125.839439,153.531372 133.270477,150.242767 139.436462,145.818726 
	C148.235519,139.505493 158.332336,138.362000 168.741730,137.779388 
	C174.971939,137.430679 181.117401,135.644165 187.349152,135.231216 
	C201.586945,134.287766 215.852264,133.742279 230.110535,133.131638 
	C238.902328,132.755112 247.709534,132.189346 256.495605,132.376312 
	C266.103058,132.580765 275.705048,133.434082 285.282379,134.302902 
	C287.049683,134.463226 288.688202,136.043503 290.772034,136.989746 
	C289.843231,145.182816 288.361145,153.332153 287.263824,161.532990 
	C286.287903,168.826462 285.874786,176.193924 284.965942,183.497971 
	C283.840759,192.540848 282.513794,201.559891 281.175385,210.574585 
	C279.842987,219.548767 278.404694,228.507416 276.963440,237.464935 
	C276.813202,238.398727 276.328278,239.278656 275.917786,240.583069 
	C213.116608,240.988602 150.396271,241.002731 87.675964,240.963074 
	C85.727554,240.961853 83.779495,240.403763 81.426498,239.998322 
z"/>
<path fill="#010001" opacity="1.000000" stroke="none" 
	d="
M295.154510,668.814636 
	C296.411652,659.941040 303.728119,653.371216 312.477051,653.687988 
	C322.513489,654.051331 329.228119,658.613892 330.545349,670.899475 
	C330.838226,696.137878 330.921112,720.643005 331.004028,745.148071 
	C329.431335,751.499512 327.020447,757.103027 320.509674,760.182556 
	C310.961914,764.698669 299.669098,760.442444 296.031403,750.591431 
	C295.577667,749.362732 295.336761,748.055359 295.050049,745.938477 
	C295.120087,719.666504 295.137299,694.240601 295.154510,668.814636 
z"/>
<path fill="#7F4A7D" opacity="1.000000" stroke="none" 
	d="
M294.932678,669.188232 
	C295.137299,694.240601 295.120087,719.666504 295.022461,745.556030 
	C294.640625,744.426636 294.081543,742.834595 294.076630,741.240784 
	C294.008545,719.152466 294.000031,697.063965 294.036438,674.975525 
	C294.039429,673.170593 294.475800,671.366394 294.932678,669.188232 
z"/>
<path fill="#DED1DF" opacity="1.000000" stroke="none" 
	d="
M331.341644,744.868774 
	C330.921112,720.643005 330.838226,696.137878 330.826385,671.132324 
	C331.269104,671.838379 331.961853,673.044067 331.964844,674.251465 
	C332.022217,697.212891 332.000153,720.174622 331.978180,743.136230 
	C331.977722,743.620667 331.783234,744.105042 331.341644,744.868774 
z"/>
<path fill="#F6F5F8" opacity="1.000000" stroke="none" 
	d="
M268.890808,870.434082 
	C268.614288,867.112854 268.222321,863.335999 268.196259,859.556702 
	C268.108063,846.758850 268.149506,833.960083 268.166565,820.712341 
	C268.460876,821.480103 268.961243,822.696655 268.964020,823.914368 
	C268.998779,839.268555 268.961761,854.622986 268.890808,870.434082 
z"/>
<path fill="#F0EBF0" opacity="1.000000" stroke="none" 
	d="
M270.179626,878.590027 
	C269.726685,877.560730 269.375336,876.147461 269.030029,874.343628 
	C269.451141,875.370667 269.866150,876.788391 270.179626,878.590027 
z"/>
</svg>